<svg width="44" height="44" viewBox="0 0 44 44" fill="none" xmlns="http://www.w3.org/2000/svg">
<rect y="8" width="44" height="28" rx="14" fill="#C0C0C0" fill-opacity="0.2"/>
<path fill-rule="evenodd" clip-rule="evenodd" d="M30.5303 29.4697C30.8232 29.7626 30.8232 30.2374 30.5303 30.5303C30.2374 30.8232 29.7626 30.8232 29.4697 30.5303L13.4697 14.5303C13.1768 14.2374 13.1768 13.7626 13.4697 13.4697C13.7626 13.1768 14.2374 13.1768 14.5303 13.4697L17.3571 16.2964C18.7663 15.5291 20.34 15 22 15C25.8155 15 29.1745 17.7953 31.1303 19.8531C32.2899 21.0732 32.2899 22.9268 31.1303 24.1469C30.3005 25.02 29.218 26.0259 27.9553 26.8947L30.5303 29.4697ZM24.5846 23.524C24.8486 23.0773 25 22.5564 25 22C25 20.3431 23.6569 19 22 19C21.4436 19 20.9227 19.1514 20.476 19.4154L24.5846 23.524ZM22 29C18.1845 29 14.8255 26.2047 12.8697 24.1469C11.7101 22.9268 11.7101 21.0732 12.8697 19.8531C13.3098 19.3901 13.8209 18.8897 14.3922 18.3923L24.5873 28.5874C23.7578 28.8474 22.8914 29 22 29Z" fill="#494949"/>
</svg>
